<?xml version="1.0" standalone="no"?>
<!DOCTYPE svg PUBLIC "-//W3C//DTD SVG 20010904//EN"
 "http://www.w3.org/TR/2001/REC-SVG-20010904/DTD/svg10.dtd">
<svg version="1.0" xmlns="http://www.w3.org/2000/svg"
 width="355.000000pt" height="355.000000pt" viewBox="0 0 355.000000 355.000000"
 preserveAspectRatio="xMidYMid meet">
<metadata>
Created by potrace 1.11, written by Peter Selinger 2001-2013
</metadata>
<g transform="translate(0.000000,355.000000) scale(0.100000,-0.100000)"
fill="#000000" stroke="none">
<path d="M0 1775 l0 -1775 1775 0 1775 0 0 1775 0 1775 -1775 0 -1775 0 0
-1775z m1085 458 c98 -131 229 -304 290 -384 l110 -146 5 381 5 381 168 3 167
2 0 -670 0 -670 -159 0 -159 0 -138 183 c-76 100 -183 241 -237 312 -55 72
-122 161 -151 198 l-51 69 -5 -379 -5 -378 -172 -3 -173 -2 0 663 c0 365 3
667 7 670 3 4 77 7 162 7 l156 0 180 -237z m2003 95 l-3 -143 -322 -3 -323 -2
0 -140 0 -140 298 -2 297 -3 3 -142 3 -143 -301 0 -300 0 0 -240 0 -240 -180
0 -180 0 0 670 0 670 505 0 506 0 -3 -142z"/>
</g>
</svg>
